<svg xmlns="http://www.w3.org/2000/svg" viewBox="0 0 127.97 127.74"><title>Asset 3</title><g id="Layer_2" data-name="Layer 2"><g id="Layer_1-2" data-name="Layer 1"><path d="M40.73,0C68.56.68,92,10.92,109.39,33c17,21.62,22,46.37,16.41,73.23a95.59,95.59,0,0,1-3.35,11.54c-2.73,8-10.16,11.77-17.83,9.18-7.37-2.48-11-10.4-8.22-18.34C101.83,93,101.91,77.41,95,62.29c-9.08-19.84-25-30.81-46.38-34-10-1.51-19.77-.13-29.32,3.12-8.2,2.78-16-.83-18.54-8.45C-1.75,15.49,2.23,8,10.25,5.18A90.8,90.8,0,0,1,40.73,0Z"/></g></g></svg>