<svg xmlns="http://www.w3.org/2000/svg" xmlns:xlink="http://www.w3.org/1999/xlink" viewBox="0 0 1007 585.92">
  <defs>
    <style>
      .a {
        fill: url(#a);
      }

      .b {
        stroke: #000;
        fill: url(#b);
      }

      .b, .k {
        stroke-miterlimit: 10;
      }

      .c {
        fill: url(#c);
      }

      .d {
        fill: url(#e);
      }

      .e {
        fill: url(#g);
      }

      .f {
        fill: url(#i);
      }

      .g {
        fill: url(#k);
      }

      .h {
        fill: url(#m);
      }

      .i {
        fill: url(#o);
      }

      .j {
        fill: url(#q);
      }

      .k, .l {
        fill: #1f66a7;
      }

      .k {
        stroke: #1f66a7;
        stroke-width: 2px;
      }

      .m {
        fill: #ff6f5f;
      }

      .n {
        fill: #1a99bd;
      }
    </style>
    <linearGradient id="a" x1="457.5" y1="573" x2="1156.5" y2="573" gradientUnits="userSpaceOnUse">
      <stop offset="0" stop-color="#1f66a7"/>
      <stop offset="0.4" stop-color="#1a99bd"/>
      <stop offset="0.55" stop-color="#ff9d75"/>
      <stop offset="0.7" stop-color="#ff6f5f"/>
      <stop offset="0.8" stop-color="#ffb0a2"/>
      <stop offset="1" stop-color="#ffc78c"/>
    </linearGradient>
    <linearGradient id="b" x1="352" x2="1609" xlink:href="#a"/>
    <linearGradient id="c" x1="1313.5" x2="1462.5" xlink:href="#a"/>
    <linearGradient id="e" x1="749" y1="522.92" x2="758" y2="522.92" xlink:href="#a"/>
    <linearGradient id="g" x1="770" y1="522.92" x2="779" y2="522.92" xlink:href="#a"/>
    <linearGradient id="i" x1="729" y1="522.92" x2="738" y2="522.92" xlink:href="#a"/>
    <linearGradient id="k" x1="811" y1="522.92" x2="820" y2="522.92" xlink:href="#a"/>
    <linearGradient id="m" x1="790" y1="522.92" x2="799" y2="522.92" xlink:href="#a"/>
    <linearGradient id="o" x1="830" y1="522.92" x2="839" y2="522.92" xlink:href="#a"/>
    <linearGradient id="q" x1="709" y1="522.92" x2="718" y2="522.92" xlink:href="#a"/>
  </defs>
  <title>logo</title>
  <g>
    <g>
      <g>
        <g>
          <path class="a" d="M462,577.5a4.5,4.5,0,0,1,0-9h690a4.5,4.5,0,0,1,0,9Z" transform="translate(-456.5 -50.08)"/>
          <path d="M1152,569a4,4,0,0,1,0,8H462a4,4,0,0,1,0-8h690m0-1H462a5,5,0,0,0,0,10h690a5,5,0,0,0,0-10Z" transform="translate(-456.5 -50.08)"/>
        </g>
        <path class="b" d="M1152,568H462a5,5,0,0,0,0,10h690a5,5,0,0,0,0-10Z" transform="translate(-456.5 -50.08)"/>
        <g>
          <path class="c" d="M1318,577.5a4.5,4.5,0,0,1,0-9h140a4.5,4.5,0,0,1,0,9Z" transform="translate(-456.5 -50.08)"/>
          <path d="M1458,569a4,4,0,0,1,0,8H1318a4,4,0,0,1,0-8h140m0-1H1318a5,5,0,0,0,0,10h140a5,5,0,0,0,0-10Z" transform="translate(-456.5 -50.08)"/>
        </g>
        <path class="b" d="M1458,568H1318a5,5,0,0,0,0,10h140a5,5,0,0,0,0-10Z" transform="translate(-456.5 -50.08)"/>
        <g>
          <rect class="d" x="749" y="460.92" width="9" height="124" rx="4" ry="4"/>
          <path d="M1210.5,511.5a3.5,3.5,0,0,1,3.5,3.5V631a3.5,3.5,0,0,1-3.5,3.5h-1a3.5,3.5,0,0,1-3.5-3.5V515a3.5,3.5,0,0,1,3.5-3.5h1m0-1h-1a4.51,4.51,0,0,0-4.5,4.5V631a4.52,4.52,0,0,0,4.5,4.5h1a4.52,4.52,0,0,0,4.5-4.5V515a4.51,4.51,0,0,0-4.5-4.5Z" transform="translate(-456.5 -50.08)"/>
        </g>
        <rect class="b" x="748.5" y="460.42" width="10" height="125" rx="4.5" ry="4.5"/>
        <g>
          <rect class="e" x="770" y="475.92" width="9" height="94" rx="4" ry="4"/>
          <path d="M1231.5,526.5a3.5,3.5,0,0,1,3.5,3.5v86a3.5,3.5,0,0,1-3.5,3.5h-1a3.5,3.5,0,0,1-3.5-3.5V530a3.5,3.5,0,0,1,3.5-3.5h1m0-1h-1a4.51,4.51,0,0,0-4.5,4.5v86a4.52,4.52,0,0,0,4.5,4.5h1a4.52,4.52,0,0,0,4.5-4.5V530a4.51,4.51,0,0,0-4.5-4.5Z" transform="translate(-456.5 -50.08)"/>
        </g>
        <rect class="b" x="769.5" y="475.42" width="10" height="95" rx="4.5" ry="4.5"/>
        <g>
          <rect class="f" x="729" y="475.92" width="9" height="94" rx="4" ry="4"/>
          <path d="M1190.5,526.5a3.5,3.5,0,0,1,3.5,3.5v86a3.5,3.5,0,0,1-3.5,3.5h-1a3.5,3.5,0,0,1-3.5-3.5V530a3.5,3.5,0,0,1,3.5-3.5h1m0-1h-1a4.51,4.51,0,0,0-4.5,4.5v86a4.52,4.52,0,0,0,4.5,4.5h1a4.52,4.52,0,0,0,4.5-4.5V530a4.51,4.51,0,0,0-4.5-4.5Z" transform="translate(-456.5 -50.08)"/>
        </g>
        <rect class="b" x="728.5" y="475.42" width="10" height="95" rx="4.5" ry="4.5"/>
        <g>
          <rect class="g" x="811" y="475.92" width="9" height="94" rx="4" ry="4"/>
          <path d="M1272.5,526.5a3.5,3.5,0,0,1,3.5,3.5v86a3.5,3.5,0,0,1-3.5,3.5h-1a3.5,3.5,0,0,1-3.5-3.5V530a3.5,3.5,0,0,1,3.5-3.5h1m0-1h-1a4.51,4.51,0,0,0-4.5,4.5v86a4.52,4.52,0,0,0,4.5,4.5h1a4.52,4.52,0,0,0,4.5-4.5V530a4.51,4.51,0,0,0-4.5-4.5Z" transform="translate(-456.5 -50.08)"/>
        </g>
        <rect class="b" x="810.5" y="475.42" width="10" height="95" rx="4.5" ry="4.5"/>
        <g>
          <rect class="h" x="790" y="493.42" width="9" height="59" rx="4" ry="4"/>
          <path d="M1251.5,544a3.5,3.5,0,0,1,3.5,3.5v51a3.5,3.5,0,0,1-3.5,3.5h-1a3.5,3.5,0,0,1-3.5-3.5v-51a3.5,3.5,0,0,1,3.5-3.5h1m0-1h-1a4.51,4.51,0,0,0-4.5,4.5v51a4.52,4.52,0,0,0,4.5,4.5h1a4.52,4.52,0,0,0,4.5-4.5v-51a4.51,4.51,0,0,0-4.5-4.5Z" transform="translate(-456.5 -50.08)"/>
        </g>
        <rect class="b" x="789.5" y="492.92" width="10" height="60" rx="4.5" ry="4.5"/>
        <g>
          <rect class="i" x="830" y="508.42" width="9" height="29" rx="4" ry="4"/>
          <path d="M1291.5,559a3.5,3.5,0,0,1,3.5,3.5v21a3.5,3.5,0,0,1-3.5,3.5h-1a3.5,3.5,0,0,1-3.5-3.5v-21a3.5,3.5,0,0,1,3.5-3.5h1m0-1h-1a4.51,4.51,0,0,0-4.5,4.5v21a4.52,4.52,0,0,0,4.5,4.5h1a4.52,4.52,0,0,0,4.5-4.5v-21a4.51,4.51,0,0,0-4.5-4.5Z" transform="translate(-456.5 -50.08)"/>
        </g>
        <rect class="b" x="829.5" y="507.92" width="10" height="30" rx="4.5" ry="4.5"/>
        <g>
          <rect class="j" x="709" y="508.42" width="9" height="29" rx="4" ry="4"/>
          <path d="M1170.5,559a3.5,3.5,0,0,1,3.5,3.5v21a3.5,3.5,0,0,1-3.5,3.5h-1a3.5,3.5,0,0,1-3.5-3.5v-21a3.5,3.5,0,0,1,3.5-3.5h1m0-1h-1a4.51,4.51,0,0,0-4.5,4.5v21a4.52,4.52,0,0,0,4.5,4.5h1a4.52,4.52,0,0,0,4.5-4.5v-21a4.51,4.51,0,0,0-4.5-4.5Z" transform="translate(-456.5 -50.08)"/>
        </g>
        <rect class="b" x="708.5" y="507.92" width="10" height="30" rx="4.5" ry="4.5"/>
      </g>
      <g>
        <path class="k" d="M468.52,557.51a3.21,3.21,0,0,1-3.14-1.78,3.39,3.39,0,0,1-.06-3.32l35.91-85a3.44,3.44,0,0,1,3.43-2.49,3.58,3.58,0,0,1,3.44,2.49l36,85a3.1,3.1,0,0,1-.12,3.38,3.43,3.43,0,0,1-3.08,1.72,3.36,3.36,0,0,1-2-.54,4.33,4.33,0,0,1-1.36-1.72l-34.84-83.07h3.79l-34.73,83.07a3.42,3.42,0,0,1-1.3,1.72A3.61,3.61,0,0,1,468.52,557.51Zm8.77-23.23,2.84-6.4h49.3l2.73,6.4Z" transform="translate(-456.5 -50.08)"/>
        <path class="k" d="M569.73,557.51a13.43,13.43,0,0,1-8-2.49,16.39,16.39,0,0,1-5.46-6.88A24.87,24.87,0,0,1,554.32,538V468.5a3.37,3.37,0,0,1,1-2.6,3.53,3.53,0,0,1,2.54-.95,3.28,3.28,0,0,1,3.56,3.55V538a15.92,15.92,0,0,0,2.31,8.95,7,7,0,0,0,6,3.5h3a2.69,2.69,0,0,1,2.13.94,3.87,3.87,0,0,1,.83,2.61,3.58,3.58,0,0,1-.95,2.55,3.4,3.4,0,0,1-2.6,1Z" transform="translate(-456.5 -50.08)"/>
        <path class="k" d="M614.76,558.22a33.47,33.47,0,0,1-17-4.33A31.5,31.5,0,0,1,585.9,542a35.39,35.39,0,0,1,0-33.89,31.6,31.6,0,0,1,11.85-11.86,35.53,35.53,0,0,1,34,0,31.87,31.87,0,0,1,11.79,11.86,33.51,33.51,0,0,1,4.33,17l-3,4.74a26.81,26.81,0,0,1-4,14.46,28.68,28.68,0,0,1-10.72,10.13A31.33,31.33,0,0,1,614.76,558.22Zm0-6.64a25.29,25.29,0,0,0,22.58-13,26.86,26.86,0,0,0,3.37-13.45,27.16,27.16,0,0,0-3.37-13.57,26.07,26.07,0,0,0-45.22,0,26.78,26.78,0,0,0-3.43,13.57,26.49,26.49,0,0,0,3.43,13.45,25.66,25.66,0,0,0,22.64,13Zm29.51,5.93a3.45,3.45,0,0,1-3.56-3.56V532.26l2.26-7.11h4.86V554a3.58,3.58,0,0,1-1,2.55A3.43,3.43,0,0,1,644.27,557.51Z" transform="translate(-456.5 -50.08)"/>
        <path class="k" d="M669.16,557.51A3.45,3.45,0,0,1,665.6,554V496.23a3.4,3.4,0,0,1,1-2.6,3.58,3.58,0,0,1,2.55-.95,3.28,3.28,0,0,1,3.55,3.55V554a3.58,3.58,0,0,1-1,2.55A3.4,3.4,0,0,1,669.16,557.51ZM668,517.92a32.19,32.19,0,0,1,4.15-13.45,25.69,25.69,0,0,1,8.89-9.18A22.8,22.8,0,0,1,693.1,492a18.1,18.1,0,0,1,7,1.07,3,3,0,0,1,1.89,3.79,2.44,2.44,0,0,1-1.65,2.13,7.44,7.44,0,0,1-3.15.06,25.34,25.34,0,0,0-4.08-.3,21.87,21.87,0,0,0-10.55,2.49,18.49,18.49,0,0,0-7.23,6.82,18.75,18.75,0,0,0-2.61,9.89Z" transform="translate(-456.5 -50.08)"/>
        <path class="k" d="M721.06,557.51a3.45,3.45,0,0,1-3.55-3.56V496.23a3.37,3.37,0,0,1,1-2.6,3.57,3.57,0,0,1,2.54-.95,3.28,3.28,0,0,1,3.56,3.55V554a3.58,3.58,0,0,1-1,2.55A3.41,3.41,0,0,1,721.06,557.51Zm43,0a3.45,3.45,0,0,1-3.55-3.56V519.7q0-9.12-4.8-14.93a15.46,15.46,0,0,0-12.5-5.81,18.13,18.13,0,0,0-13.4,5.22q-5.21,5.2-5.21,13.51h-5.93a29.83,29.83,0,0,1,3.62-13.4,24.4,24.4,0,0,1,8.71-9.12,23,23,0,0,1,12.21-3.32,22.73,22.73,0,0,1,12.68,3.56,24.67,24.67,0,0,1,8.59,9.83,32,32,0,0,1,3.14,14.46V554a3.58,3.58,0,0,1-.95,2.55A3.41,3.41,0,0,1,764.08,557.51Zm42.67,0a3.45,3.45,0,0,1-3.56-3.56V519.7q0-9.12-4.8-14.93a15.45,15.45,0,0,0-12.5-5.81,17.64,17.64,0,0,0-13.33,5.39q-5.16,5.4-4.92,14.52h-7.11a31.07,31.07,0,0,1,3.55-14.22,24.32,24.32,0,0,1,9-9.42,24.61,24.61,0,0,1,12.8-3.38,22.68,22.68,0,0,1,12.68,3.56,24.52,24.52,0,0,1,8.59,9.83,31.85,31.85,0,0,1,3.14,14.46V554a3.57,3.57,0,0,1-.94,2.55A3.44,3.44,0,0,1,806.75,557.51Z" transform="translate(-456.5 -50.08)"/>
        <path class="k" d="M873.23,558.69A43.17,43.17,0,0,1,855.4,555a47.53,47.53,0,0,1-14.76-10.31,49.56,49.56,0,0,1-10.07-15.17,46.07,46.07,0,0,1-3.67-18.31A47.1,47.1,0,0,1,830.45,493a48.08,48.08,0,0,1,9.9-15.17A46.15,46.15,0,0,1,855.1,467.5a44.17,44.17,0,0,1,18.13-3.74,46,46,0,0,1,15.53,2.61,44.78,44.78,0,0,1,13.75,7.94,2.75,2.75,0,0,1,1.06,2.31,3.93,3.93,0,0,1-.94,2.61,3.25,3.25,0,0,1-2.61,1.12,2.84,2.84,0,0,1-.95-.17,5.3,5.3,0,0,1-1-.48,9.78,9.78,0,0,1-1.06-.77,29,29,0,0,0-10.79-6.16,43.45,43.45,0,0,0-13-1.9,35.75,35.75,0,0,0-15.05,3.26A41.41,41.41,0,0,0,845.62,483a42,42,0,0,0-8.53,12.86A38.5,38.5,0,0,0,834,511.17a39.92,39.92,0,0,0,3.08,15.64,41.19,41.19,0,0,0,8.47,12.92,39.43,39.43,0,0,0,12.5,8.71,37,37,0,0,0,15.17,3.14,39.46,39.46,0,0,0,13.1-2.13,37.43,37.43,0,0,0,11.44-6.52,2.55,2.55,0,0,1,2.25-.59,4.18,4.18,0,0,1,2.25,1.18,3.39,3.39,0,0,1,1,2.49,6.53,6.53,0,0,1-.12,1.3,2.39,2.39,0,0,1-.71,1.19,30.79,30.79,0,0,1-13.45,8A56.77,56.77,0,0,1,873.23,558.69Z" transform="translate(-456.5 -50.08)"/>
        <path class="k" d="M934.39,557.51a13.43,13.43,0,0,1-8-2.49,16.37,16.37,0,0,1-5.45-6.88A24.7,24.7,0,0,1,919,538V468.5a3.4,3.4,0,0,1,1-2.6,3.54,3.54,0,0,1,2.55-.95,3.48,3.48,0,0,1,2.6.95,3.52,3.52,0,0,1,1,2.6V538a15.92,15.92,0,0,0,2.31,8.95,7,7,0,0,0,6,3.5h3a2.69,2.69,0,0,1,2.13.94,3.82,3.82,0,0,1,.83,2.61,3.57,3.57,0,0,1-.94,2.55,3.44,3.44,0,0,1-2.61,1Z" transform="translate(-456.5 -50.08)"/>
        <path class="k" d="M979.42,558.22a33.41,33.41,0,0,1-17-4.33A31.6,31.6,0,0,1,950.56,542a35.39,35.39,0,0,1,0-33.89,31.7,31.7,0,0,1,11.86-11.86,35.51,35.51,0,0,1,34,0,31.73,31.73,0,0,1,11.79,11.86,35.32,35.32,0,0,1,0,33.89,31.63,31.63,0,0,1-11.79,11.85A33.14,33.14,0,0,1,979.42,558.22Zm0-6.64a25.29,25.29,0,0,0,22.58-13,28.69,28.69,0,0,0,0-27,25.26,25.26,0,0,0-22.58-13,25.6,25.6,0,0,0-22.63,13,26.69,26.69,0,0,0-3.44,13.57,26.4,26.4,0,0,0,3.44,13.45,25.63,25.63,0,0,0,22.63,13Z" transform="translate(-456.5 -50.08)"/>
        <path class="k" d="M1058.94,558.22a31.38,31.38,0,0,1-16.53-4.39A31.72,31.72,0,0,1,1030.92,542a33.62,33.62,0,0,1-4.21-16.83,35.89,35.89,0,0,1,3.91-16.94,30.26,30.26,0,0,1,10.78-11.8,29,29,0,0,1,15.77-4.32A32.73,32.73,0,0,1,1071,495a29.54,29.54,0,0,1,10.91,8.83,3,3,0,0,1,.71,2.49,3.19,3.19,0,0,1-1.54,2.13,3,3,0,0,1-2.37.65,3.43,3.43,0,0,1-2.26-1.36,24.14,24.14,0,0,0-19.31-9,22,22,0,0,0-12.27,3.44,23,23,0,0,0-8.18,9.36,30.72,30.72,0,0,0-2.9,13.63,28,28,0,0,0,3.2,13.45,24,24,0,0,0,21.92,13,29.23,29.23,0,0,0,9.19-1.42,20.17,20.17,0,0,0,7.52-4.39,4.09,4.09,0,0,1,2.37-1.06,2.73,2.73,0,0,1,2.26.83,3.44,3.44,0,0,1,1.24,2.43,2.8,2.8,0,0,1-1,2.31Q1071.87,558.22,1058.94,558.22Z" transform="translate(-456.5 -50.08)"/>
        <path class="k" d="M1104.1,557.51a3.45,3.45,0,0,1-3.56-3.56V468.5a3.4,3.4,0,0,1,1-2.6,3.54,3.54,0,0,1,2.55-.95,3.48,3.48,0,0,1,2.6.95,3.52,3.52,0,0,1,1,2.6V554a3.58,3.58,0,0,1-1,2.55A3.4,3.4,0,0,1,1104.1,557.51Zm1.18-20.27L1101,532.5,1144.39,493a3.69,3.69,0,0,1,2.31-1,3,3,0,0,1,2.19,1.18,3.53,3.53,0,0,1,1.07,2.37,2.76,2.76,0,0,1-1.18,2.14ZM1149,556.91a2.92,2.92,0,0,1-2.43.89,3.4,3.4,0,0,1-2.19-1.36l-28.09-34.37,5.1-4.15,28.09,34.37a3.56,3.56,0,0,1,.89,2.37A3.23,3.23,0,0,1,1149,556.91Z" transform="translate(-456.5 -50.08)"/>
      </g>
    </g>
    <g>
      <path d="M860.83,403c-5-4.18-5.18-7.22-.53-11.89s9.4-9.43,14.09-14.16c.78-.78,1.49-1.64,2.36-2.6-44.26-28-71.72-67.14-78.84-118.94s8.72-96.94,43.71-135.4c-3.34-3.22-6.6-6.36-10.16-9.77-.53.5-1.53,1.39-2.47,2.33-7,7-14,14-21,20.93-3.75,3.73-6.92,3.61-10.6-.28-18-19-17.61-49.54.9-68.25a49.37,49.37,0,0,1,68.49-1.59c4.19,3.91,4.27,7.05.22,11.11q-11.79,11.83-23.62,23.62c-.88.88-1.72,1.8-2.48,2.6l10.26,10.16c31.12-26.94,67.38-41.33,108.95-41.29s77.6,14.38,108.64,41.27l10.51-10.43c-3.54-3.41-7.28-6.94-10.93-10.55q-7.85-7.74-15.59-15.58c-3.74-3.76-3.81-7.14.13-10.6,15.56-13.68,33.35-17.43,52.47-9.49,18.8,7.8,29,22.63,30.32,43.11.85,13.51-3.74,25.25-12.62,35.36-4.09,4.67-7.19,4.75-11.54.37-7.67-7.72-15.3-15.49-22.85-23.13l-9.89,10.51c34.49,37.84,50.43,83,43.3,135s-34.54,91-79.4,119.35c3.33,3.08,6.45,5.9,9.49,8.81,2.56,2.46,5,5,7.53,7.56,4.63,4.68,4.49,7.72-.53,11.91h-4.13c-1.62-1.43-3.32-2.77-4.85-4.29-5-4.92-10.06-9.74-14.73-14.93-2.58-2.88-4.64-3.07-8.17-1.52q-67.81,29.78-135.55-.41c-2.8-1.24-4.39-.93-6.48,1.21-6.64,6.78-13.53,13.31-20.33,19.94ZM960.11,81.65c-83.35-.22-151.26,67.48-151.68,151.19C808,316.26,876,384.44,959.74,384.7c83.57.27,151.68-67.6,151.85-151.32C1111.77,149.83,1043.92,81.87,960.11,81.65ZM803,120.28l51.2-51c-11.63-10.45-34.09-8.64-46.92,4S792.46,108.28,803,120.28Zm262.87-51.07,51.06,51.2c10.55-11.87,8.77-34.25-3.91-46.95S1077.63,58.7,1065.86,69.21Z" transform="translate(-456.5 -50.08)"/>
      <path class="l" d="M960.11,81.65c83.81.22,151.66,68.18,151.48,151.73-.17,83.72-68.28,151.59-151.85,151.32C876,384.44,808,316.26,808.43,232.84,808.85,149.13,876.76,81.43,960.11,81.65Zm-.31,291c76.62.21,139.52-62.44,139.76-139.18.23-76.33-62.35-139.49-138.47-139.76-77.36-.27-140.3,61.94-140.61,139C820.17,309.48,882.87,372.47,959.8,372.68Z" transform="translate(-456.5 -50.08)"/>
      <path class="m" d="M803,120.28c-10.53-12-8.62-34.4,4.28-47.07s35.29-14.42,46.92-4Z" transform="translate(-456.5 -50.08)"/>
      <path class="m" d="M1065.86,69.21c11.77-10.51,34.36-8.57,47.15,4.25s14.46,35.08,3.91,47Z" transform="translate(-456.5 -50.08)"/>
      <path d="M959.8,372.68c-76.93-.21-139.63-63.2-139.32-140,.31-77,63.25-139.25,140.61-139,76.12.27,138.7,63.43,138.47,139.76C1099.32,310.24,1036.42,372.89,959.8,372.68Zm107.09-70.57c-4-2.9-10.54-4.72-6.94-11.1,3.71-6.61,8.64-1.69,13.14.34A126.17,126.17,0,0,0,1087,239.18c-2.15,0-3.74,0-5.32,0-3.83-.15-6.29-2.42-6.38-5.82s2.44-6,6.38-6.17c1.66-.09,3.33,0,5.37,0-1.2-18.75-5.43-36-14-52.19-2,1.14-3.47,2.08-5,2.82-3.2,1.53-6.49.62-8.13-2.14s-.84-6.3,2.24-8.35c1.49-1,3.05-1.91,4.77-3a126.93,126.93,0,0,0-38-38c-2.87,4.05-4.67,10.55-11,6.94-6.61-3.74-1.6-8.69.28-13.28-16.45-8.16-33.43-13-52-13.76,0,1.56,0,2.79,0,4-.07,4.92-2.15,7.59-6,7.65s-6.08-2.69-6.16-7.81c0-1.22-.12-2.43-.2-3.91a127.5,127.5,0,0,0-51.86,13.89c1,1.84,1.83,3.31,2.58,4.84,1.71,3.5.75,7-2.32,8.59s-6.22.51-8.23-2.69c-.88-1.41-1.75-2.84-2.77-4.5a127.29,127.29,0,0,0-38,38c4,2.94,10.49,4.78,6.88,11.15-3.72,6.54-8.67,1.64-13.14-.34C838.36,191.48,834.1,208.63,833,227c5,.64,11.81-1.24,11.57,6.5-.21,7.12-6.62,5.33-11.56,5.93,1.11,18.46,5.41,35.73,14,52,8-4.13,10.77-4.35,12.9-.91.73,1.17,1.44,3.3.88,4.13a95,95,0,0,1-7,8.4,124.69,124.69,0,0,0,37.36,37c5.46-7.65,7.73-9.18,11.14-7,6.42,4.22,1.62,8.76-.26,13.32a123.52,123.52,0,0,0,52,13.75c0-1.72,0-3.18,0-4.63.12-4.37,2.29-6.9,5.95-7s6,2.54,6.17,7.1c0,1.44.13,2.88.21,4.49a122.58,122.58,0,0,0,51.85-13.81c-1-1.88-2-3.44-2.73-5.09-1.51-3.24-.6-6.48,2.17-8.1s6.37-.81,8.37,2.22c1,1.49,1.87,3,2.92,4.74A127.27,127.27,0,0,0,1066.89,302.11Z" transform="translate(-456.5 -50.08)"/>
      <path class="n" d="M1066.89,302.11a127.27,127.27,0,0,1-38,37.95c-1-1.7-1.94-3.25-2.92-4.74-2-3-5.46-3.93-8.37-2.22s-3.68,4.86-2.17,8.1c.77,1.65,1.72,3.21,2.73,5.09a122.58,122.58,0,0,1-51.85,13.81c-.08-1.61-.16-3.05-.21-4.49-.13-4.56-2.37-7.15-6.17-7.1s-5.83,2.59-5.95,7c0,1.45,0,2.91,0,4.63a123.52,123.52,0,0,1-52-13.75c1.88-4.56,6.68-9.1.26-13.32-3.41-2.23-5.68-.7-11.14,7a124.69,124.69,0,0,1-37.36-37,95,95,0,0,0,7-8.4c.56-.83-.15-3-.88-4.13-2.13-3.44-4.88-3.22-12.9.91-8.55-16.25-12.85-33.52-14-52,4.94-.6,11.35,1.19,11.56-5.93.24-7.74-6.56-5.86-11.57-6.5,1.1-18.34,5.36-35.49,13.92-51.88,4.47,2,9.42,6.88,13.14.34,3.61-6.37-2.89-8.21-6.88-11.15a127.29,127.29,0,0,1,38-38c1,1.66,1.89,3.09,2.77,4.5,2,3.2,5.25,4.26,8.23,2.69s4-5.09,2.32-8.59c-.75-1.53-1.6-3-2.58-4.84a127.5,127.5,0,0,1,51.86-13.89c.08,1.48.18,2.69.2,3.91.08,5.12,2.24,7.87,6.16,7.81s5.9-2.73,6-7.65c0-1.23,0-2.46,0-4,18.58.77,35.56,5.6,52,13.76-1.88,4.59-6.89,9.54-.28,13.28,6.38,3.61,8.18-2.89,11-6.94a126.93,126.93,0,0,1,38,38c-1.72,1.07-3.28,2-4.77,3-3.08,2-4,5.45-2.24,8.35s4.93,3.67,8.13,2.14c1.54-.74,3-1.68,5-2.82,8.58,16.23,12.81,33.44,14,52.19-2,0-3.71-.07-5.37,0-3.94.2-6.47,2.68-6.38,6.17s2.55,5.67,6.38,5.82c1.58.06,3.17,0,5.32,0a126.17,126.17,0,0,1-13.89,52.17c-4.5-2-9.43-7-13.14-.34C1056.35,297.39,1062.85,299.21,1066.89,302.11Zm-100.81-124V165c0-5.51.08-11-.06-16.52a6.11,6.11,0,0,0-6-6.26c-3.26,0-5.78,2.62-6,6.28-.07,1,0,2.07,0,3.1,0,18.25,0,36.49,0,54.74,0,2.38-.61,3.59-3,4.55a23.79,23.79,0,0,0-15,25.6,24.46,24.46,0,0,0,21.6,20.89c10.42,1.28,21-5.21,24.91-15.64.83-2.21,2-2.61,4-2.59,9,.08,17.9,0,26.85,0,4.37,0,8.73.07,13.09,0,3.75-.09,6.27-2.56,6.29-5.91s-2.47-5.78-6.19-6.05c-1.15-.08-2.3-.05-3.44-.05-12.17,0-24.33,0-36.5,0-2.22,0-3.45-.44-4.27-2.8A21.78,21.78,0,0,0,969.29,211C966.62,210,966,208.6,966,206,966.17,196.68,966.08,187.38,966.08,178.08Z" transform="translate(-456.5 -50.08)"/>
      <path d="M966.08,178.08c0,9.3.09,18.6-.06,27.89,0,2.63.6,4,3.27,5.07a21.78,21.78,0,0,1,13.08,13.34c.82,2.36,2,2.82,4.27,2.8,12.17-.08,24.33,0,36.5,0,1.14,0,2.29,0,3.44.05,3.72.27,6.21,2.72,6.19,6.05s-2.54,5.82-6.29,5.91c-4.36.1-8.72,0-13.09,0-8.95,0-17.9,0-26.85,0-2.06,0-3.2.38-4,2.59-4,10.43-14.49,16.92-24.91,15.64A24.46,24.46,0,0,1,936,236.49a23.79,23.79,0,0,1,15-25.6c2.38-1,3-2.17,3-4.55-.08-18.25,0-36.49,0-54.74,0-1,0-2.07,0-3.1.24-3.66,2.76-6.27,6-6.28a6.11,6.11,0,0,1,6,6.26c.14,5.5.05,11,.06,16.52Zm-6,67.21a12.1,12.1,0,1,0-12.09-12A12,12,0,0,0,960,245.29Z" transform="translate(-456.5 -50.08)"/>
      <path class="m" d="M960,245.29a12.1,12.1,0,1,1,12-12A12,12,0,0,1,960,245.29Z" transform="translate(-456.5 -50.08)"/>
    </g>
  </g>
</svg>
