<?xml version="1.0" encoding="utf-8"?>
<!-- Generator: Adobe Illustrator 22.0.1, SVG Export Plug-In . SVG Version: 6.00 Build 0)  -->
<svg version="1.1" id="Layer_1" xmlns="http://www.w3.org/2000/svg" xmlns:xlink="http://www.w3.org/1999/xlink" x="0px" y="0px"
	 viewBox="0 0 1007 585.9" style="enable-background:new 0 0 1007 585.9;" xml:space="preserve">
<style type="text/css">
	.st0{fill:url(#SVGID_1_);}
	.st1{fill:url(#SVGID_2_);stroke:#000000;stroke-miterlimit:10;}
	.st2{fill:url(#SVGID_3_);}
	.st3{fill:url(#SVGID_4_);stroke:#000000;stroke-miterlimit:10;}
	.st4{fill:url(#SVGID_5_);}
	.st5{fill:url(#SVGID_6_);stroke:#000000;stroke-miterlimit:10;}
	.st6{fill:url(#SVGID_7_);}
	.st7{fill:url(#SVGID_8_);stroke:#000000;stroke-miterlimit:10;}
	.st8{fill:url(#SVGID_9_);}
	.st9{fill:url(#SVGID_10_);stroke:#000000;stroke-miterlimit:10;}
	.st10{fill:url(#SVGID_11_);}
	.st11{fill:url(#SVGID_12_);stroke:#000000;stroke-miterlimit:10;}
	.st12{fill:url(#SVGID_13_);}
	.st13{fill:url(#SVGID_14_);stroke:#000000;stroke-miterlimit:10;}
	.st14{fill:url(#SVGID_15_);}
	.st15{fill:url(#SVGID_16_);stroke:#000000;stroke-miterlimit:10;}
	.st16{fill:url(#SVGID_17_);}
	.st17{fill:url(#SVGID_18_);stroke:#000000;stroke-miterlimit:10;}
	.st18{fill:#1F66A7;stroke:#1F66A7;stroke-width:2;stroke-miterlimit:10;}
	.st19{fill:#1F66A7;}
	.st20{fill:#FF6F5F;}
	.st21{fill:#1A99BD;}
</style>
<title>logo</title>
<g>
	<g>
		<g>
			<g>
				
					<linearGradient id="SVGID_1_" gradientUnits="userSpaceOnUse" x1="457.5" y1="14.7518" x2="1156.5" y2="14.7518" gradientTransform="matrix(1 0 0 -1 -456.5 537.92)">
					<stop  offset="0" style="stop-color:#1F66A7"/>
					<stop  offset="0.4" style="stop-color:#1A99BD"/>
					<stop  offset="0.55" style="stop-color:#FF9D75"/>
					<stop  offset="0.7" style="stop-color:#FF6F5F"/>
					<stop  offset="0.8" style="stop-color:#FFB0A2"/>
					<stop  offset="1" style="stop-color:#FFC78C"/>
				</linearGradient>
				<path class="st0" d="M5.5,527.7c-2.5,0-4.5-2-4.5-4.5s2-4.5,4.5-4.5h690c2.5,0,4.5,2,4.5,4.5s-2,4.5-4.5,4.5H5.5z"/>
				<path d="M695.5,519.2c2.2,0,4,1.8,4,4s-1.8,4-4,4H5.5c-2.2,0-4-1.8-4-4s1.8-4,4-4H695.5 M695.5,518.2H5.5c-2.8,0-5,2.2-5,5
					s2.2,5,5,5h690c2.8,0,5-2.2,5-5S698.3,518.2,695.5,518.2z"/>
			</g>
			
				<linearGradient id="SVGID_2_" gradientUnits="userSpaceOnUse" x1="352" y1="14.7518" x2="1609" y2="14.7518" gradientTransform="matrix(1 0 0 -1 -456.5 537.92)">
				<stop  offset="0" style="stop-color:#1F66A7"/>
				<stop  offset="0.4" style="stop-color:#1A99BD"/>
				<stop  offset="0.55" style="stop-color:#FF9D75"/>
				<stop  offset="0.7" style="stop-color:#FF6F5F"/>
				<stop  offset="0.8" style="stop-color:#FFB0A2"/>
				<stop  offset="1" style="stop-color:#FFC78C"/>
			</linearGradient>
			<path class="st1" d="M695.5,518.2H5.5c-2.8,0-5,2.2-5,5s2.2,5,5,5h690c2.8,0,5-2.2,5-5S698.3,518.2,695.5,518.2z"/>
			<g>
				
					<linearGradient id="SVGID_3_" gradientUnits="userSpaceOnUse" x1="1313.5" y1="14.7518" x2="1462.5" y2="14.7518" gradientTransform="matrix(1 0 0 -1 -456.5 537.92)">
					<stop  offset="0" style="stop-color:#1F66A7"/>
					<stop  offset="0.4" style="stop-color:#1A99BD"/>
					<stop  offset="0.55" style="stop-color:#FF9D75"/>
					<stop  offset="0.7" style="stop-color:#FF6F5F"/>
					<stop  offset="0.8" style="stop-color:#FFB0A2"/>
					<stop  offset="1" style="stop-color:#FFC78C"/>
				</linearGradient>
				<path class="st2" d="M861.5,527.7c-2.5,0-4.5-2-4.5-4.5s2-4.5,4.5-4.5h140c2.5,0,4.5,2,4.5,4.5s-2,4.5-4.5,4.5H861.5z"/>
				<path d="M1001.5,519.2c2.2,0,4,1.8,4,4s-1.8,4-4,4h-140c-2.2,0-4-1.8-4-4s1.8-4,4-4H1001.5 M1001.5,518.2h-140c-2.8,0-5,2.2-5,5
					s2.2,5,5,5h140c2.8,0,5-2.2,5-5S1004.3,518.2,1001.5,518.2z"/>
			</g>
			
				<linearGradient id="SVGID_4_" gradientUnits="userSpaceOnUse" x1="352" y1="14.7518" x2="1609" y2="14.7518" gradientTransform="matrix(1 0 0 -1 -456.5 537.92)">
				<stop  offset="0" style="stop-color:#1F66A7"/>
				<stop  offset="0.4" style="stop-color:#1A99BD"/>
				<stop  offset="0.55" style="stop-color:#FF9D75"/>
				<stop  offset="0.7" style="stop-color:#FF6F5F"/>
				<stop  offset="0.8" style="stop-color:#FFB0A2"/>
				<stop  offset="1" style="stop-color:#FFC78C"/>
			</linearGradient>
			<path class="st3" d="M1001.5,518.2h-140c-2.8,0-5,2.2-5,5s2.2,5,5,5h140c2.8,0,5-2.2,5-5S1004.3,518.2,1001.5,518.2z"/>
			<g>
				
					<linearGradient id="SVGID_5_" gradientUnits="userSpaceOnUse" x1="749" y1="64.8318" x2="758" y2="64.8318" gradientTransform="matrix(1 0 0 -1 0 588)">
					<stop  offset="0" style="stop-color:#1F66A7"/>
					<stop  offset="0.4" style="stop-color:#1A99BD"/>
					<stop  offset="0.55" style="stop-color:#FF9D75"/>
					<stop  offset="0.7" style="stop-color:#FF6F5F"/>
					<stop  offset="0.8" style="stop-color:#FFB0A2"/>
					<stop  offset="1" style="stop-color:#FFC78C"/>
				</linearGradient>
				<path class="st4" d="M753,461.2h1c2.2,0,4,1.8,4,4v116c0,2.2-1.8,4-4,4h-1c-2.2,0-4-1.8-4-4v-116C749,463,750.8,461.2,753,461.2
					z"/>
				<path d="M754,461.7c1.9,0,3.5,1.6,3.5,3.5v116c0,1.9-1.6,3.5-3.5,3.5h-1c-1.9,0-3.5-1.6-3.5-3.5v-116c0-1.9,1.6-3.5,3.5-3.5H754
					 M754,460.7h-1c-2.5,0-4.5,2-4.5,4.5v116c0,2.5,2,4.5,4.5,4.5h1c2.5,0,4.5-2,4.5-4.5v-116C758.5,462.7,756.5,460.7,754,460.7z"
					/>
			</g>
			
				<linearGradient id="SVGID_6_" gradientUnits="userSpaceOnUse" x1="352" y1="64.8318" x2="1609" y2="64.8318" gradientTransform="matrix(1 0 0 -1 0 588)">
				<stop  offset="0" style="stop-color:#1F66A7"/>
				<stop  offset="0.4" style="stop-color:#1A99BD"/>
				<stop  offset="0.55" style="stop-color:#FF9D75"/>
				<stop  offset="0.7" style="stop-color:#FF6F5F"/>
				<stop  offset="0.8" style="stop-color:#FFB0A2"/>
				<stop  offset="1" style="stop-color:#FFC78C"/>
			</linearGradient>
			<path class="st5" d="M753,460.7h1c2.5,0,4.5,2,4.5,4.5v116c0,2.5-2,4.5-4.5,4.5h-1c-2.5,0-4.5-2-4.5-4.5v-116
				C748.5,462.7,750.5,460.7,753,460.7z"/>
			<g>
				
					<linearGradient id="SVGID_7_" gradientUnits="userSpaceOnUse" x1="770" y1="64.8318" x2="779" y2="64.8318" gradientTransform="matrix(1 0 0 -1 0 588)">
					<stop  offset="0" style="stop-color:#1F66A7"/>
					<stop  offset="0.4" style="stop-color:#1A99BD"/>
					<stop  offset="0.55" style="stop-color:#FF9D75"/>
					<stop  offset="0.7" style="stop-color:#FF6F5F"/>
					<stop  offset="0.8" style="stop-color:#FFB0A2"/>
					<stop  offset="1" style="stop-color:#FFC78C"/>
				</linearGradient>
				<path class="st6" d="M774,476.2h1c2.2,0,4,1.8,4,4v86c0,2.2-1.8,4-4,4h-1c-2.2,0-4-1.8-4-4v-86C770,478,771.8,476.2,774,476.2z"
					/>
				<path d="M775,476.7c1.9,0,3.5,1.6,3.5,3.5v86c0,1.9-1.6,3.5-3.5,3.5h-1c-1.9,0-3.5-1.6-3.5-3.5v-86c0-1.9,1.6-3.5,3.5-3.5H775
					 M775,475.7h-1c-2.5,0-4.5,2-4.5,4.5v86c0,2.5,2,4.5,4.5,4.5h1c2.5,0,4.5-2,4.5-4.5v-86C779.5,477.7,777.5,475.7,775,475.7z"/>
			</g>
			
				<linearGradient id="SVGID_8_" gradientUnits="userSpaceOnUse" x1="352" y1="64.8318" x2="1609" y2="64.8318" gradientTransform="matrix(1 0 0 -1 0 588)">
				<stop  offset="0" style="stop-color:#1F66A7"/>
				<stop  offset="0.4" style="stop-color:#1A99BD"/>
				<stop  offset="0.55" style="stop-color:#FF9D75"/>
				<stop  offset="0.7" style="stop-color:#FF6F5F"/>
				<stop  offset="0.8" style="stop-color:#FFB0A2"/>
				<stop  offset="1" style="stop-color:#FFC78C"/>
			</linearGradient>
			<path class="st7" d="M774,475.7h1c2.5,0,4.5,2,4.5,4.5v86c0,2.5-2,4.5-4.5,4.5h-1c-2.5,0-4.5-2-4.5-4.5v-86
				C769.5,477.7,771.5,475.7,774,475.7z"/>
			<g>
				
					<linearGradient id="SVGID_9_" gradientUnits="userSpaceOnUse" x1="729" y1="64.8318" x2="738" y2="64.8318" gradientTransform="matrix(1 0 0 -1 0 588)">
					<stop  offset="0" style="stop-color:#1F66A7"/>
					<stop  offset="0.4" style="stop-color:#1A99BD"/>
					<stop  offset="0.55" style="stop-color:#FF9D75"/>
					<stop  offset="0.7" style="stop-color:#FF6F5F"/>
					<stop  offset="0.8" style="stop-color:#FFB0A2"/>
					<stop  offset="1" style="stop-color:#FFC78C"/>
				</linearGradient>
				<path class="st8" d="M733,476.2h1c2.2,0,4,1.8,4,4v86c0,2.2-1.8,4-4,4h-1c-2.2,0-4-1.8-4-4v-86C729,478,730.8,476.2,733,476.2z"
					/>
				<path d="M734,476.7c1.9,0,3.5,1.6,3.5,3.5v86c0,1.9-1.6,3.5-3.5,3.5h-1c-1.9,0-3.5-1.6-3.5-3.5v-86c0-1.9,1.6-3.5,3.5-3.5H734
					 M734,475.7h-1c-2.5,0-4.5,2-4.5,4.5v86c0,2.5,2,4.5,4.5,4.5h1c2.5,0,4.5-2,4.5-4.5v-86C738.5,477.7,736.5,475.7,734,475.7z"/>
			</g>
			
				<linearGradient id="SVGID_10_" gradientUnits="userSpaceOnUse" x1="352" y1="64.8318" x2="1609" y2="64.8318" gradientTransform="matrix(1 0 0 -1 0 588)">
				<stop  offset="0" style="stop-color:#1F66A7"/>
				<stop  offset="0.4" style="stop-color:#1A99BD"/>
				<stop  offset="0.55" style="stop-color:#FF9D75"/>
				<stop  offset="0.7" style="stop-color:#FF6F5F"/>
				<stop  offset="0.8" style="stop-color:#FFB0A2"/>
				<stop  offset="1" style="stop-color:#FFC78C"/>
			</linearGradient>
			<path class="st9" d="M733,475.7h1c2.5,0,4.5,2,4.5,4.5v86c0,2.5-2,4.5-4.5,4.5h-1c-2.5,0-4.5-2-4.5-4.5v-86
				C728.5,477.7,730.5,475.7,733,475.7z"/>
			<g>
				
					<linearGradient id="SVGID_11_" gradientUnits="userSpaceOnUse" x1="811" y1="64.8318" x2="820" y2="64.8318" gradientTransform="matrix(1 0 0 -1 0 588)">
					<stop  offset="0" style="stop-color:#1F66A7"/>
					<stop  offset="0.4" style="stop-color:#1A99BD"/>
					<stop  offset="0.55" style="stop-color:#FF9D75"/>
					<stop  offset="0.7" style="stop-color:#FF6F5F"/>
					<stop  offset="0.8" style="stop-color:#FFB0A2"/>
					<stop  offset="1" style="stop-color:#FFC78C"/>
				</linearGradient>
				<path class="st10" d="M815,476.2h1c2.2,0,4,1.8,4,4v86c0,2.2-1.8,4-4,4h-1c-2.2,0-4-1.8-4-4v-86C811,478,812.8,476.2,815,476.2z
					"/>
				<path d="M816,476.7c1.9,0,3.5,1.6,3.5,3.5v86c0,1.9-1.6,3.5-3.5,3.5h-1c-1.9,0-3.5-1.6-3.5-3.5v-86c0-1.9,1.6-3.5,3.5-3.5H816
					 M816,475.7h-1c-2.5,0-4.5,2-4.5,4.5v86c0,2.5,2,4.5,4.5,4.5h1c2.5,0,4.5-2,4.5-4.5v-86C820.5,477.7,818.5,475.7,816,475.7z"/>
			</g>
			
				<linearGradient id="SVGID_12_" gradientUnits="userSpaceOnUse" x1="352" y1="64.8318" x2="1609" y2="64.8318" gradientTransform="matrix(1 0 0 -1 0 588)">
				<stop  offset="0" style="stop-color:#1F66A7"/>
				<stop  offset="0.4" style="stop-color:#1A99BD"/>
				<stop  offset="0.55" style="stop-color:#FF9D75"/>
				<stop  offset="0.7" style="stop-color:#FF6F5F"/>
				<stop  offset="0.8" style="stop-color:#FFB0A2"/>
				<stop  offset="1" style="stop-color:#FFC78C"/>
			</linearGradient>
			<path class="st11" d="M815,475.7h1c2.5,0,4.5,2,4.5,4.5v86c0,2.5-2,4.5-4.5,4.5h-1c-2.5,0-4.5-2-4.5-4.5v-86
				C810.5,477.7,812.5,475.7,815,475.7z"/>
			<g>
				
					<linearGradient id="SVGID_13_" gradientUnits="userSpaceOnUse" x1="790" y1="64.8318" x2="799" y2="64.8318" gradientTransform="matrix(1 0 0 -1 0 588)">
					<stop  offset="0" style="stop-color:#1F66A7"/>
					<stop  offset="0.4" style="stop-color:#1A99BD"/>
					<stop  offset="0.55" style="stop-color:#FF9D75"/>
					<stop  offset="0.7" style="stop-color:#FF6F5F"/>
					<stop  offset="0.8" style="stop-color:#FFB0A2"/>
					<stop  offset="1" style="stop-color:#FFC78C"/>
				</linearGradient>
				<path class="st12" d="M794,493.7h1c2.2,0,4,1.8,4,4v51c0,2.2-1.8,4-4,4h-1c-2.2,0-4-1.8-4-4v-51
					C790,495.5,791.8,493.7,794,493.7z"/>
				<path d="M795,494.2c1.9,0,3.5,1.6,3.5,3.5v51c0,1.9-1.6,3.5-3.5,3.5h-1c-1.9,0-3.5-1.6-3.5-3.5v-51c0-1.9,1.6-3.5,3.5-3.5H795
					 M795,493.2h-1c-2.5,0-4.5,2-4.5,4.5v51c0,2.5,2,4.5,4.5,4.5h1c2.5,0,4.5-2,4.5-4.5v-51C799.5,495.2,797.5,493.2,795,493.2z"/>
			</g>
			
				<linearGradient id="SVGID_14_" gradientUnits="userSpaceOnUse" x1="352" y1="64.8318" x2="1609" y2="64.8318" gradientTransform="matrix(1 0 0 -1 0 588)">
				<stop  offset="0" style="stop-color:#1F66A7"/>
				<stop  offset="0.4" style="stop-color:#1A99BD"/>
				<stop  offset="0.55" style="stop-color:#FF9D75"/>
				<stop  offset="0.7" style="stop-color:#FF6F5F"/>
				<stop  offset="0.8" style="stop-color:#FFB0A2"/>
				<stop  offset="1" style="stop-color:#FFC78C"/>
			</linearGradient>
			<path class="st13" d="M794,493.2h1c2.5,0,4.5,2,4.5,4.5v51c0,2.5-2,4.5-4.5,4.5h-1c-2.5,0-4.5-2-4.5-4.5v-51
				C789.5,495.2,791.5,493.2,794,493.2z"/>
			<g>
				
					<linearGradient id="SVGID_15_" gradientUnits="userSpaceOnUse" x1="830" y1="64.8318" x2="839" y2="64.8318" gradientTransform="matrix(1 0 0 -1 0 588)">
					<stop  offset="0" style="stop-color:#1F66A7"/>
					<stop  offset="0.4" style="stop-color:#1A99BD"/>
					<stop  offset="0.55" style="stop-color:#FF9D75"/>
					<stop  offset="0.7" style="stop-color:#FF6F5F"/>
					<stop  offset="0.8" style="stop-color:#FFB0A2"/>
					<stop  offset="1" style="stop-color:#FFC78C"/>
				</linearGradient>
				<path class="st14" d="M834,508.7h1c2.2,0,4,1.8,4,4v21c0,2.2-1.8,4-4,4h-1c-2.2,0-4-1.8-4-4v-21
					C830,510.5,831.8,508.7,834,508.7z"/>
				<path d="M835,509.2c1.9,0,3.5,1.6,3.5,3.5v21c0,1.9-1.6,3.5-3.5,3.5h-1c-1.9,0-3.5-1.6-3.5-3.5v-21c0-1.9,1.6-3.5,3.5-3.5H835
					 M835,508.2h-1c-2.5,0-4.5,2-4.5,4.5v21c0,2.5,2,4.5,4.5,4.5h1c2.5,0,4.5-2,4.5-4.5v-21C839.5,510.2,837.5,508.2,835,508.2z"/>
			</g>
			
				<linearGradient id="SVGID_16_" gradientUnits="userSpaceOnUse" x1="352" y1="64.8318" x2="1609" y2="64.8318" gradientTransform="matrix(1 0 0 -1 0 588)">
				<stop  offset="0" style="stop-color:#1F66A7"/>
				<stop  offset="0.4" style="stop-color:#1A99BD"/>
				<stop  offset="0.55" style="stop-color:#FF9D75"/>
				<stop  offset="0.7" style="stop-color:#FF6F5F"/>
				<stop  offset="0.8" style="stop-color:#FFB0A2"/>
				<stop  offset="1" style="stop-color:#FFC78C"/>
			</linearGradient>
			<path class="st15" d="M834,508.2h1c2.5,0,4.5,2,4.5,4.5v21c0,2.5-2,4.5-4.5,4.5h-1c-2.5,0-4.5-2-4.5-4.5v-21
				C829.5,510.2,831.5,508.2,834,508.2z"/>
			<g>
				
					<linearGradient id="SVGID_17_" gradientUnits="userSpaceOnUse" x1="709" y1="64.8318" x2="718" y2="64.8318" gradientTransform="matrix(1 0 0 -1 0 588)">
					<stop  offset="0" style="stop-color:#1F66A7"/>
					<stop  offset="0.4" style="stop-color:#1A99BD"/>
					<stop  offset="0.55" style="stop-color:#FF9D75"/>
					<stop  offset="0.7" style="stop-color:#FF6F5F"/>
					<stop  offset="0.8" style="stop-color:#FFB0A2"/>
					<stop  offset="1" style="stop-color:#FFC78C"/>
				</linearGradient>
				<path class="st16" d="M713,508.7h1c2.2,0,4,1.8,4,4v21c0,2.2-1.8,4-4,4h-1c-2.2,0-4-1.8-4-4v-21
					C709,510.5,710.8,508.7,713,508.7z"/>
				<path d="M714,509.2c1.9,0,3.5,1.6,3.5,3.5v21c0,1.9-1.6,3.5-3.5,3.5h-1c-1.9,0-3.5-1.6-3.5-3.5v-21c0-1.9,1.6-3.5,3.5-3.5H714
					 M714,508.2h-1c-2.5,0-4.5,2-4.5,4.5v21c0,2.5,2,4.5,4.5,4.5h1c2.5,0,4.5-2,4.5-4.5v-21C718.5,510.2,716.5,508.2,714,508.2z"/>
			</g>
			
				<linearGradient id="SVGID_18_" gradientUnits="userSpaceOnUse" x1="352" y1="64.8318" x2="1609" y2="64.8318" gradientTransform="matrix(1 0 0 -1 0 588)">
				<stop  offset="0" style="stop-color:#1F66A7"/>
				<stop  offset="0.4" style="stop-color:#1A99BD"/>
				<stop  offset="0.55" style="stop-color:#FF9D75"/>
				<stop  offset="0.7" style="stop-color:#FF6F5F"/>
				<stop  offset="0.8" style="stop-color:#FFB0A2"/>
				<stop  offset="1" style="stop-color:#FFC78C"/>
			</linearGradient>
			<path class="st17" d="M713,508.2h1c2.5,0,4.5,2,4.5,4.5v21c0,2.5-2,4.5-4.5,4.5h-1c-2.5,0-4.5-2-4.5-4.5v-21
				C708.5,510.2,710.5,508.2,713,508.2z"/>
		</g>
		<g>
			<path class="st18" d="M12,507.7c-1.3,0.1-2.6-0.6-3.1-1.8c-0.6-1-0.6-2.3-0.1-3.3l35.9-85c0.4-1.5,1.9-2.5,3.4-2.5
				c1.6,0,3,1,3.4,2.5l36,85c0.6,1.1,0.6,2.4-0.1,3.4c-0.6,1.1-1.8,1.8-3.1,1.7c-0.7,0-1.4-0.2-2-0.5c-0.6-0.4-1.1-1-1.4-1.7
				l-34.8-83.1H50l-34.7,83.1c-0.2,0.7-0.7,1.3-1.3,1.7C13.4,507.5,12.7,507.7,12,507.7z M20.8,484.4l2.8-6.4h49.3l2.7,6.4H20.8z"/>
			<path class="st18" d="M113.2,507.7c-2.9,0-5.7-0.8-8-2.5c-2.4-1.8-4.3-4.1-5.5-6.9c-1.4-3.2-2-6.7-1.9-10.1v-69.5
				c-0.1-1,0.3-1.9,1-2.6c0.7-0.6,1.6-1,2.5-1c1.8-0.2,3.4,1.2,3.6,3c0,0.2,0,0.4,0,0.6v69.5c-0.1,3.1,0.7,6.3,2.3,9
				c1.2,2.1,3.5,3.5,6,3.5h3c0.8,0,1.6,0.3,2.1,0.9c0.6,0.7,0.9,1.7,0.8,2.6c0,0.9-0.3,1.9-1,2.5c-0.7,0.7-1.6,1.1-2.6,1
				L113.2,507.7z"/>
			<path class="st18" d="M158.3,508.4c-6,0.1-11.8-1.4-17-4.3c-5-2.8-9.1-6.9-11.9-11.9c-5.8-10.6-5.8-23.3,0-33.9
				c2.8-4.9,6.9-9,11.8-11.9c10.6-5.8,23.4-5.8,34,0c4.9,2.8,9,6.9,11.8,11.9c2.9,5.2,4.4,11,4.3,17l-3,4.7c0.1,5.1-1.3,10.1-4,14.5
				c-2.6,4.3-6.3,7.7-10.7,10.1C168.9,507.2,163.6,508.5,158.3,508.4z M158.3,501.7c9.4,0.2,18-4.8,22.6-13
				c2.3-4.1,3.4-8.7,3.4-13.5c0.1-4.7-1.1-9.4-3.4-13.6c-7.2-12.5-23.1-16.8-35.6-9.6c-4,2.3-7.3,5.6-9.6,9.6
				c-2.3,4.1-3.5,8.8-3.4,13.6c-0.1,4.7,1.1,9.4,3.4,13.5C140.2,496.9,148.9,501.9,158.3,501.7z M187.8,507.7
				c-1.9,0.1-3.5-1.4-3.6-3.3c0-0.1,0-0.1,0-0.2v-21.7l2.3-7.1h4.9v28.8c0,0.9-0.3,1.9-1,2.5C189.6,507.4,188.7,507.7,187.8,507.7
				L187.8,507.7z"/>
			<path class="st18" d="M212.7,507.7c-1.9,0.1-3.5-1.4-3.6-3.3c0-0.1,0-0.1,0-0.2v-57.8c-0.1-1,0.3-1.9,1-2.6c0.7-0.6,1.6-1,2.5-1
				c1.8-0.2,3.4,1.2,3.5,3c0,0.2,0,0.4,0,0.6v57.8c0,0.9-0.3,1.9-1,2.5C214.5,507.4,213.6,507.7,212.7,507.7z M211.5,468.1
				c0.4-4.7,1.8-9.3,4.2-13.5c2.1-3.8,5.2-6.9,8.9-9.2c3.6-2.2,7.8-3.3,12.1-3.3c2.4-0.1,4.8,0.3,7,1.1c1.6,0.5,2.4,2.2,1.9,3.8
				c-0.1,1-0.7,1.8-1.7,2.1c-1,0.2-2.1,0.3-3.2,0.1c-1.3-0.2-2.7-0.3-4.1-0.3c-3.7-0.1-7.3,0.8-10.5,2.5c-3,1.6-5.5,3.9-7.2,6.8
				c-1.8,3-2.7,6.4-2.6,9.9L211.5,468.1z"/>
			<path class="st18" d="M264.6,507.7c-1.9,0.1-3.5-1.4-3.6-3.3c0-0.1,0-0.1,0-0.2v-57.7c-0.1-1,0.3-1.9,1-2.6c0.7-0.6,1.6-1,2.5-1
				c1.8-0.2,3.4,1.2,3.6,3c0,0.2,0,0.4,0,0.6v57.8c0,0.9-0.3,1.9-1,2.5C266.4,507.4,265.5,507.7,264.6,507.7z M307.6,507.7
				c-1.9,0.1-3.5-1.4-3.6-3.3c0-0.1,0-0.1,0-0.2v-34.3c0-6.1-1.6-11.1-4.8-14.9c-3-3.8-7.7-5.9-12.5-5.8c-5-0.2-9.8,1.7-13.4,5.2
				c-3.5,3.5-5.2,8-5.2,13.5h-5.9c0.1-4.7,1.4-9.3,3.6-13.4c2.1-3.8,5.1-6.9,8.7-9.1c3.7-2.2,7.9-3.4,12.2-3.3
				c4.5-0.1,8.9,1.1,12.7,3.6c3.7,2.4,6.7,5.8,8.6,9.8c2.2,4.5,3.2,9.5,3.1,14.5v34.3c0,0.9-0.3,1.9-1,2.5
				C309.5,507.4,308.5,507.7,307.6,507.7L307.6,507.7z M350.2,507.7c-1.9,0.1-3.5-1.4-3.6-3.3c0-0.1,0-0.1,0-0.2v-34.3
				c0-6.1-1.6-11.1-4.8-14.9c-3-3.8-7.7-5.9-12.5-5.8c-5-0.2-9.9,1.8-13.3,5.4c-3.4,3.6-5.1,8.4-4.9,14.5H304c0-5,1.2-9.8,3.5-14.2
				c2.1-3.9,5.2-7.2,9-9.4c3.9-2.3,8.3-3.4,12.8-3.4c4.5-0.1,8.9,1.1,12.7,3.6c3.7,2.4,6.7,5.8,8.6,9.8c2.2,4.5,3.2,9.5,3.1,14.5
				v34.3c0,0.9-0.3,1.9-0.9,2.5C352.1,507.4,351.2,507.7,350.2,507.7L350.2,507.7z"/>
			<path class="st18" d="M416.7,508.9c-6.1,0.1-12.2-1.2-17.8-3.7c-5.5-2.5-10.5-6-14.8-10.3c-4.3-4.4-7.7-9.5-10.1-15.2
				c-2.5-5.8-3.7-12-3.7-18.3c0-6.2,1.2-12.4,3.5-18.2c2.3-5.6,5.7-10.8,9.9-15.2c4.2-4.4,9.2-7.9,14.7-10.3
				c5.7-2.5,11.9-3.8,18.1-3.7c5.3,0,10.5,0.9,15.5,2.6c5,1.8,9.7,4.5,13.8,7.9c0.7,0.6,1.1,1.4,1.1,2.3c0,1-0.3,1.9-0.9,2.6
				c-0.7,0.8-1.6,1.2-2.6,1.1c-0.3,0-0.6-0.1-1-0.2c-0.3-0.1-0.7-0.3-1-0.5c-0.4-0.2-0.7-0.5-1.1-0.8c-3.1-2.8-6.8-4.9-10.8-6.2
				c-4.2-1.3-8.6-1.9-13-1.9c-5.2,0-10.3,1.1-15,3.3c-4.7,2.1-9,5.2-12.6,8.9c-3.6,3.7-6.5,8.1-8.5,12.9c-2.1,4.8-3.1,10-3.1,15.3
				c0,5.4,1,10.7,3.1,15.6c2,4.8,4.9,9.2,8.5,12.9c3.6,3.7,7.8,6.6,12.5,8.7c4.8,2.1,9.9,3.2,15.2,3.1c4.5,0,8.9-0.7,13.1-2.1
				c4.2-1.5,8-3.7,11.4-6.5c0.6-0.5,1.4-0.8,2.3-0.6c0.9,0.2,1.6,0.6,2.3,1.2c0.7,0.7,1,1.6,1,2.5c0,0.4,0,0.9-0.1,1.3
				c-0.1,0.5-0.4,0.9-0.7,1.2c-3.7,3.8-8.4,6.5-13.5,8C427.4,508.1,422.1,508.9,416.7,508.9z"/>
			<path class="st18" d="M477.9,507.7c-2.9,0-5.7-0.8-8-2.5c-2.4-1.8-4.3-4.1-5.5-6.9c-1.4-3.2-2-6.7-1.9-10.1v-69.5
				c-0.1-1,0.3-1.9,1-2.6c0.7-0.6,1.6-1,2.5-1c1-0.1,1.9,0.3,2.6,1c0.7,0.7,1,1.6,1,2.6v69.5c-0.1,3.1,0.7,6.3,2.3,9
				c1.2,2.1,3.5,3.5,6,3.5h3c0.8,0,1.6,0.3,2.1,0.9c0.6,0.7,0.9,1.7,0.8,2.6c0,0.9-0.3,1.9-0.9,2.5c-0.7,0.7-1.6,1.1-2.6,1
				L477.9,507.7z"/>
			<path class="st18" d="M522.9,508.4c-6,0.1-11.8-1.4-17-4.3c-5-2.8-9.1-6.9-11.9-11.9c-5.8-10.6-5.8-23.3,0-33.9
				c2.8-4.9,6.9-9,11.9-11.9c10.6-5.8,23.4-5.8,34,0c4.9,2.8,9,6.9,11.8,11.9c5.8,10.6,5.8,23.3,0,33.9c-2.8,4.9-6.9,9-11.8,11.8
				C534.7,507,528.9,508.5,522.9,508.4z M522.9,501.7c9.4,0.2,18-4.8,22.6-13c4.5-8.4,4.5-18.6,0-27c-4.5-8.2-13.2-13.2-22.6-13
				c-9.4-0.1-18,4.9-22.6,13c-2.3,4.1-3.5,8.8-3.4,13.6c-0.1,4.7,1.1,9.4,3.4,13.5C504.9,496.9,513.6,501.9,522.9,501.7L522.9,501.7
				z"/>
			<path class="st18" d="M602.4,508.4c-5.8,0.1-11.5-1.4-16.5-4.4c-4.8-2.9-8.8-6.9-11.5-11.8c-2.9-5.1-4.3-10.9-4.2-16.8
				c-0.1-5.9,1.2-11.7,3.9-16.9c2.5-4.8,6.2-8.9,10.8-11.8c4.7-2.9,10.2-4.4,15.8-4.3c4.8-0.1,9.5,0.9,13.8,2.9
				c4.3,2,8,5.1,10.9,8.8c0.6,0.7,0.9,1.6,0.7,2.5c-0.2,0.9-0.7,1.7-1.5,2.1c-0.7,0.5-1.5,0.8-2.4,0.6c-0.9-0.1-1.7-0.6-2.3-1.4
				c-4.7-5.8-11.8-9.2-19.3-9c-4.3-0.1-8.6,1.1-12.3,3.4c-3.5,2.3-6.4,5.5-8.2,9.4c-2,4.3-3,8.9-2.9,13.6c-0.1,4.7,1,9.3,3.2,13.5
				c4.2,8.2,12.7,13.2,21.9,13c3.1,0,6.2-0.5,9.2-1.4c2.8-0.9,5.4-2.4,7.5-4.4c0.7-0.6,1.5-1,2.4-1.1c0.8-0.1,1.7,0.2,2.3,0.8
				c0.7,0.6,1.2,1.5,1.2,2.4c0.1,0.9-0.3,1.7-1,2.3C618.2,505.8,611.1,508.4,602.4,508.4z"/>
			<path class="st18" d="M647.6,507.7c-1.9,0.1-3.5-1.4-3.6-3.3c0-0.1,0-0.1,0-0.2v-85.5c-0.1-1,0.3-1.9,1-2.6c0.7-0.6,1.6-1,2.6-1
				c1-0.1,1.9,0.3,2.6,1c0.7,0.7,1,1.6,1,2.6v85.5c0,0.9-0.3,1.9-1,2.5C649.5,507.4,648.6,507.7,647.6,507.7z M648.8,487.4l-4.3-4.7
				l43.4-39.5c0.6-0.6,1.4-0.9,2.3-1c0.9,0.1,1.7,0.5,2.2,1.2c0.6,0.6,1,1.5,1.1,2.4c0,0.9-0.5,1.6-1.2,2.1L648.8,487.4z
				 M692.5,507.1c-0.6,0.7-1.5,1-2.4,0.9c-0.9-0.1-1.7-0.6-2.2-1.4l-28.1-34.4l5.1-4.2l28.1,34.4c0.6,0.7,0.9,1.5,0.9,2.4
				C693.8,505.7,693.3,506.6,692.5,507.1z"/>
		</g>
	</g>
	<g>
		<path d="M404.3,353.2c-5-4.2-5.2-7.2-0.5-11.9s9.4-9.4,14.1-14.2c0.8-0.8,1.5-1.6,2.4-2.6c-44.3-28-71.7-67.1-78.8-118.9
			s8.7-96.9,43.7-135.4c-3.3-3.2-6.6-6.4-10.2-9.8c-0.5,0.5-1.5,1.4-2.5,2.3c-7,7-14,14-21,20.9c-3.8,3.7-6.9,3.6-10.6-0.3
			c-18-19-17.6-49.5,0.9-68.3c18.7-18.9,48.9-19.6,68.5-1.6c4.2,3.9,4.3,7,0.2,11.1c-7.9,7.9-15.7,15.8-23.6,23.6
			c-0.9,0.9-1.7,1.8-2.5,2.6L394.7,61c31.1-26.9,67.4-41.3,109-41.3S581.2,34.1,612.3,61l10.5-10.4c-3.5-3.4-7.3-6.9-10.9-10.6
			c-5.2-5.2-10.4-10.4-15.6-15.6c-3.7-3.8-3.8-7.1,0.1-10.6c15.6-13.7,33.3-17.4,52.5-9.5c18.8,7.8,29,22.6,30.3,43.1
			c0.8,13.5-3.7,25.2-12.6,35.4c-4.1,4.7-7.2,4.8-11.5,0.4c-7.7-7.7-15.3-15.5-22.8-23.1l-9.9,10.5c34.5,37.8,50.4,83,43.3,135
			s-34.5,91-79.4,119.4c3.3,3.1,6.4,5.9,9.5,8.8c2.6,2.5,5,5,7.5,7.6c4.6,4.7,4.5,7.7-0.5,11.9h-4.1c-1.6-1.4-3.3-2.8-4.8-4.3
			c-5-4.9-10.1-9.7-14.7-14.9c-2.6-2.9-4.6-3.1-8.2-1.5c-45.2,19.9-90.4,19.7-135.5-0.4c-2.8-1.2-4.4-0.9-6.5,1.2
			c-6.6,6.8-13.5,13.3-20.3,19.9L404.3,353.2z M503.6,31.8C420.3,31.6,352.3,99.3,351.9,183c-0.4,83.4,67.6,151.6,151.3,151.9
			c83.6,0.3,151.7-67.6,151.8-151.3C655.3,100,587.4,32,503.6,31.8z M346.5,70.4l51.2-51c-11.6-10.4-34.1-8.6-46.9,4
			S336,58.4,346.5,70.4z M609.4,19.4l51.1,51.2c10.6-11.9,8.8-34.2-3.9-46.9S621.1,8.9,609.4,19.4L609.4,19.4z"/>
		<path class="st19" d="M503.6,31.8C587.4,32,655.3,100,655.1,183.5c-0.2,83.7-68.3,151.6-151.8,151.3
			c-83.7-0.3-151.7-68.4-151.3-151.9C352.3,99.3,420.3,31.6,503.6,31.8z M503.3,322.8c76.6,0.2,139.5-62.4,139.8-139.2
			c0.2-76.3-62.3-139.5-138.5-139.8c-77.4-0.3-140.3,61.9-140.6,139C363.7,259.6,426.4,322.6,503.3,322.8L503.3,322.8z"/>
		<path class="st20" d="M346.5,70.4c-10.5-12-8.6-34.4,4.3-47.1s35.3-14.4,46.9-4L346.5,70.4z"/>
		<path class="st20" d="M609.4,19.4c11.8-10.5,34.4-8.6,47.2,4.3s14.5,35.1,3.9,47L609.4,19.4z"/>
		<path d="M503.3,322.8c-76.9-0.2-139.6-63.2-139.3-140c0.3-77,63.3-139.3,140.6-139c76.1,0.3,138.7,63.4,138.5,139.8
			C642.8,260.4,579.9,323.1,503.3,322.8z M610.4,252.3c-4-2.9-10.5-4.7-6.9-11.1c3.7-6.6,8.6-1.7,13.1,0.3
			c8.3-16.2,13.1-34,13.9-52.2c-2.2,0-3.7,0-5.3,0c-3.8-0.1-6.3-2.4-6.4-5.8s2.4-6,6.4-6.2c1.7-0.1,3.3,0,5.4,0
			c-1.2-18.8-5.4-36-14-52.2c-2,1.1-3.5,2.1-5,2.8c-3.2,1.5-6.5,0.6-8.1-2.1c-1.6-2.8-0.8-6.3,2.2-8.4c1.5-1,3.1-1.9,4.8-3
			c-9.8-15.2-22.8-28.2-38-38c-2.9,4.1-4.7,10.6-11,6.9c-6.6-3.7-1.6-8.7,0.3-13.3c-16.5-8.2-33.4-13-52-13.8c0,1.6,0,2.8,0,4
			c-0.1,4.9-2.2,7.6-6,7.6s-6.1-2.7-6.2-7.8c0-1.2-0.1-2.4-0.2-3.9c-18.1,0.9-35.8,5.6-51.9,13.9c1,1.8,1.8,3.3,2.6,4.8
			c1.7,3.5,0.8,7-2.3,8.6s-6.2,0.5-8.2-2.7c-0.9-1.4-1.8-2.8-2.8-4.5c-15.2,9.8-28.2,22.8-38,38c4,2.9,10.5,4.8,6.9,11.1
			c-3.7,6.5-8.7,1.6-13.1-0.3c-8.6,16.4-12.9,33.5-14,51.9c5,0.6,11.8-1.2,11.6,6.5c-0.2,7.1-6.6,5.3-11.6,5.9
			c1.1,18.5,5.4,35.7,14,52c8-4.1,10.8-4.4,12.9-0.9c0.7,1.2,1.4,3.3,0.9,4.1c-2.2,2.9-4.5,5.7-7,8.4c9.7,14.8,22.4,27.5,37.4,37
			c5.5-7.6,7.7-9.2,11.1-7c6.4,4.2,1.6,8.8-0.3,13.3c16.1,8.3,33.9,13,52,13.8c0-1.7,0-3.2,0-4.6c0.1-4.4,2.3-6.9,6-7s6,2.5,6.2,7.1
			c0,1.4,0.1,2.9,0.2,4.5c18.1-0.7,35.8-5.4,51.8-13.8c-1-1.9-2-3.4-2.7-5.1c-1.5-3.2-0.6-6.5,2.2-8.1s6.4-0.8,8.4,2.2
			c1,1.5,1.9,3,2.9,4.7C587.6,280.4,600.6,267.5,610.4,252.3z"/>
		<path class="st21" d="M610.4,252.3c-9.8,15.2-22.8,28.1-38,38c-1-1.7-1.9-3.3-2.9-4.7c-2-3-5.5-3.9-8.4-2.2s-3.7,4.9-2.2,8.1
			c0.8,1.6,1.7,3.2,2.7,5.1c-16.1,8.4-33.8,13.1-51.8,13.8c-0.1-1.6-0.2-3-0.2-4.5c-0.1-4.6-2.4-7.1-6.2-7.1s-5.8,2.6-6,7
			c0,1.5,0,2.9,0,4.6c-18.1-0.7-35.9-5.4-52-13.8c1.9-4.6,6.7-9.1,0.3-13.3c-3.4-2.2-5.7-0.7-11.1,7c-14.9-9.5-27.7-22.2-37.4-37
			c2.5-2.7,4.8-5.5,7-8.4c0.6-0.8-0.2-3-0.9-4.1c-2.1-3.4-4.9-3.2-12.9,0.9c-8.5-16.3-12.8-33.5-14-52c4.9-0.6,11.3,1.2,11.6-5.9
			c0.2-7.7-6.6-5.9-11.6-6.5c1.1-18.3,5.4-35.5,13.9-51.9c4.5,2,9.4,6.9,13.1,0.3c3.6-6.4-2.9-8.2-6.9-11.1
			c9.8-15.2,22.8-28.2,38-38c1,1.7,1.9,3.1,2.8,4.5c2,3.2,5.3,4.3,8.2,2.7s4-5.1,2.3-8.6c-0.8-1.5-1.6-3-2.6-4.8
			c16.1-8.3,33.8-13,51.9-13.9c0.1,1.5,0.2,2.7,0.2,3.9c0.1,5.1,2.2,7.9,6.2,7.8s5.9-2.7,6-7.6c0-1.2,0-2.5,0-4
			c18.6,0.8,35.6,5.6,52,13.8c-1.9,4.6-6.9,9.5-0.3,13.3c6.4,3.6,8.2-2.9,11-6.9c15.2,9.8,28.2,22.8,38,38c-1.7,1.1-3.3,2-4.8,3
			c-3.1,2-4,5.4-2.2,8.4c1.8,2.9,4.9,3.7,8.1,2.1c1.5-0.7,3-1.7,5-2.8c8.6,16.2,12.8,33.4,14,52.2c-2,0-3.7-0.1-5.4,0
			c-3.9,0.2-6.5,2.7-6.4,6.2s2.6,5.7,6.4,5.8c1.6,0.1,3.2,0,5.3,0c-0.8,18.2-5.6,36-13.9,52.2c-4.5-2-9.4-7-13.1-0.3
			C599.8,247.6,606.3,249.4,610.4,252.3z M509.6,128.3v-13.1c0-5.5,0.1-11-0.1-16.5c0.1-3.4-2.6-6.2-6-6.3c0,0,0,0,0,0
			c-3.3,0-5.8,2.6-6,6.3c-0.1,1,0,2.1,0,3.1c0,18.3,0,36.5,0,54.7c0,2.4-0.6,3.6-3,4.6c-10.4,4-16.6,14.6-15,25.6
			c1.6,11.1,10.5,19.7,21.6,20.9c10.4,1.3,21-5.2,24.9-15.6c0.8-2.2,2-2.6,4-2.6c9,0.1,17.9,0,26.8,0c4.4,0,8.7,0.1,13.1,0
			c3.8-0.1,6.3-2.6,6.3-5.9s-2.5-5.8-6.2-6.1c-1.2-0.1-2.3-0.1-3.4-0.1c-12.2,0-24.3,0-36.5,0c-2.2,0-3.5-0.4-4.3-2.8
			c-2.1-6.2-6.9-11.1-13.1-13.3c-2.7-1-3.3-2.4-3.3-5C509.7,146.8,509.6,137.5,509.6,128.3L509.6,128.3z"/>
		<path d="M509.6,128.2c0,9.3,0.1,18.6-0.1,27.9c0,2.6,0.6,4,3.3,5.1c6.1,2.3,10.9,7.2,13.1,13.3c0.8,2.4,2,2.8,4.3,2.8
			c12.2-0.1,24.3,0,36.5,0c1.1,0,2.3,0,3.4,0.1c3.7,0.3,6.2,2.7,6.2,6.1s-2.5,5.8-6.3,5.9c-4.4,0.1-8.7,0-13.1,0c-9,0-17.9,0-26.8,0
			c-2.1,0-3.2,0.4-4,2.6c-4,10.4-14.5,16.9-24.9,15.6c-11.2-1.2-20.1-9.8-21.6-20.9c-1.6-11,4.6-21.6,15-25.6c2.4-1,3-2.2,3-4.6
			c-0.1-18.3,0-36.5,0-54.7c0-1,0-2.1,0-3.1c0.2-3.7,2.8-6.3,6-6.3c3.4,0.1,6.1,2.8,6,6.2c0,0,0,0,0,0c0.1,5.5,0,11,0.1,16.5
			L509.6,128.2z M503.6,195.5c6.7,0,12.1-5.4,12.1-12.1c0-6.7-5.4-12.1-12.1-12.1c-6.7,0-12.1,5.4-12.1,12.1c0,0,0,0.1,0,0.1
			C491.5,190.1,496.9,195.5,503.6,195.5C503.5,195.5,503.5,195.5,503.6,195.5L503.6,195.5z"/>
		<path class="st20" d="M503.5,195.5c-6.7,0.1-12.1-5.3-12.2-12c-0.1-6.7,5.3-12.1,12-12.2c6.7-0.1,12.1,5.3,12.2,12
			c0,0.1,0,0.1,0,0.2C515.5,190.1,510.1,195.5,503.5,195.5z"/>
	</g>
</g>
</svg>
