<svg id="Layer_1" data-name="Layer 1" xmlns="http://www.w3.org/2000/svg" viewBox="0 0 532.98 499.18">
  <path
    d="M273.23,526.66V499.47h-3.57q-19.35,0-38.69,0a30.07,30.07,0,0,1-30.49-30.58q0-68,0-136c0-18.38,12.95-31.31,31.35-31.32H393c15.44,0,27.21,9.43,30.35,24.43a35.74,35.74,0,0,1,.44,7.25q.08,67.71.07,135.41c0,18.09-12.91,30.85-31,30.86H354.24v27.17h12.35c2.65,0,5.29,0,7.93,0,8.76.07,14.89,5.75,14.92,13.82,0,8.32-6.08,14.22-14.88,14.23-19.24,0-38.48,0-57.71,0q-33.15,0-66.28,0c-7.28,0-12.63-4.29-14.22-11.15a13.81,13.81,0,0,1,13.05-16.86C257.21,526.56,265,526.66,273.23,526.66Zm52.4-151.32h0c0-6.34.23-12.69-.12-19a16.35,16.35,0,0,0-2.46-7.9c-2.41-3.62-7.05-4.57-11.06-3.09-4.33,1.59-6.82,5.27-6.83,10.35q-.06,24.57,0,49.13a4.39,4.39,0,0,1-2.08,4.19c-5.57,3.78-11,7.74-16.52,11.62-7.94,5.59-15.93,11.12-23.82,16.79-6.27,4.51-6.34,12.89-.26,17.12,3.71,2.57,8.05,2.37,12.37-.68,14.41-10.17,28.85-20.29,43.17-30.59,4.21-3,8.05-6.57,7.67-12.57-.13-2.08-.09-4.18-.09-6.26Q325.62,389.89,325.63,375.34Z"
    transform="translate(-37.48 -157.24)" />
  <path
    d="M421.29,159.05c68.52.08,126.32,44.38,143.59,109.64C575.22,307.74,571,345.54,553.72,382c-3.6,7.58-11.58,10.69-18.46,7.42-7.64-3.62-10.28-11.44-6.44-19.5,11.57-24.25,16.15-49.71,12.82-76.42-6.73-54-45.54-95.29-97.79-104.78a119.68,119.68,0,0,0-50.92,1.75c-8.45,2.1-15.72-1.95-17.76-9.88-2-7.71,2.7-14.95,11.11-17A151.51,151.51,0,0,1,421.29,159.05Z"
    transform="translate(-37.48 -157.24)" />
  <path
    d="M188.6,157.24a175,175,0,0,1,70.24,16.43c7.92,3.72,11.29,10.54,8.93,17.63-2.7,8.13-11.23,11.86-19.26,8.12-10.37-4.85-21-8.89-32.28-11-44.83-8.37-84.89,1.17-117.4,34.09-25.89,26.21-36.32,58.63-33,95.31.6,6.59,2.17,13.1,3.35,19.64,1.3,7.17-3,14.31-9.72,16-7.66,1.94-15-2.11-17.09-9.68a133.92,133.92,0,0,1-4.93-34.73C37.13,265,52.54,227.47,84.83,197.31c21.59-20.15,47.36-32.2,76.4-37.09C170.27,158.7,179.47,158.2,188.6,157.24Z"
    transform="translate(-37.48 -157.24)" />
  <path
    d="M192.57,222.78a85.22,85.22,0,0,1,31.59,5.8,13.77,13.77,0,0,1-5.95,26.54c-2.89-.27-5.72-1.39-8.54-2.22-32.52-9.48-64.85,8.1-74.28,40.57a61.11,61.11,0,0,0,.77,36.21,26.08,26.08,0,0,1,1.63,7.36c.1,7.09-4.68,12.48-11.64,13.64a13.69,13.69,0,0,1-15.19-9.2,89.37,89.37,0,0,1-1-59.66C121.7,246.09,154.43,222.75,192.57,222.78Z"
    transform="translate(-37.48 -157.24)" />
  <path
    d="M418.23,227c27.83.68,51.3,10.92,68.65,33,17,21.61,22,46.37,16.42,73.23a97.49,97.49,0,0,1-3.36,11.54c-2.73,8-10.16,11.77-17.82,9.18-7.38-2.49-11-10.4-8.23-18.34,5.43-15.63,5.51-31.19-1.42-46.31-9.08-19.83-25-30.8-46.38-34-10-1.51-19.76-.13-29.32,3.11-8.2,2.79-16-.82-18.54-8.44-2.49-7.44,1.49-14.9,9.51-17.75A90.57,90.57,0,0,1,418.23,227Z"
    transform="translate(-37.48 -157.24)" />
  <path class="cls-1"
    d="M325.63,375.34q0,14.55,0,29.1c0,2.08,0,4.18.09,6.26.38,6-3.46,9.54-7.67,12.57-14.32,10.3-28.76,20.42-43.17,30.59-4.32,3.05-8.66,3.25-12.37.68-6.08-4.23-6-12.61.26-17.12,7.89-5.67,15.88-11.2,23.82-16.79,5.5-3.88,11-7.84,16.52-11.62a4.39,4.39,0,0,0,2.08-4.19q-.09-24.56,0-49.13c0-5.08,2.5-8.76,6.83-10.35,4-1.48,8.65-.53,11.06,3.09a16.35,16.35,0,0,1,2.46,7.9c.35,6.32.12,12.67.12,19Z"
    transform="translate(-37.48 -157.24)" />
</svg>