<svg xmlns="http://www.w3.org/2000/svg" viewBox="0 0 223.33 253.2"><title>Asset 7</title><g id="Layer_2" data-name="Layer 2"><g id="Layer_1-2" data-name="Layer 1"><path d="M72.75,225.13V198H69.18q-19.35,0-38.69,0A30.06,30.06,0,0,1,0,167.36q0-68,0-136C0,12.94,13,0,31.37,0h161.1c15.44,0,27.2,9.42,30.35,24.43a35.6,35.6,0,0,1,.44,7.24q.06,67.71.06,135.42c0,18.08-12.91,30.84-31,30.85H153.75v27.17h12.36c2.64,0,5.29,0,7.93,0,8.76.07,14.89,5.76,14.92,13.82,0,8.32-6.08,14.22-14.88,14.24q-28.86,0-57.72,0-33.14,0-66.28,0c-7.28,0-12.62-4.29-14.21-11.15a13.8,13.8,0,0,1,13-16.86C56.72,225,64.54,225.13,72.75,225.13ZM125.14,73.81h0c0-6.34.24-12.69-.11-19a16.38,16.38,0,0,0-2.46-7.89c-2.42-3.63-7.06-4.57-11.06-3.1-4.33,1.59-6.83,5.27-6.84,10.35q0,24.57,0,49.13a4.39,4.39,0,0,1-2.08,4.19c-5.57,3.79-11,7.74-16.53,11.62-7.94,5.6-15.92,11.12-23.81,16.79C56,140.4,56,148.79,62,153c3.71,2.57,8,2.37,12.37-.68,14.41-10.17,28.85-20.29,43.16-30.58,4.22-3,8.06-6.58,7.68-12.58-.13-2.08-.09-4.17-.09-6.26Q125.14,88.36,125.14,73.81Z"/></g></g></svg>