<svg xmlns="http://www.w3.org/2000/svg" viewBox="0 0 231.03 196.71"><title>Asset 5</title><g id="Layer_2" data-name="Layer 2"><g id="Layer_1-2" data-name="Layer 1"><path d="M151.12,0a175,175,0,0,1,70.25,16.43c7.91,3.72,11.28,10.54,8.92,17.63-2.7,8.13-11.23,11.86-19.25,8.12-10.38-4.85-21-8.89-32.29-11-44.83-8.37-84.89,1.17-117.4,34.09-25.89,26.21-36.32,58.63-33,95.31.6,6.59,2.17,13.1,3.36,19.64,1.29,7.17-3,14.31-9.73,16-7.66,1.94-15-2.11-17.09-9.68A133.48,133.48,0,0,1,0,151.82C-.35,107.76,15.06,70.23,47.35,40.07,68.94,19.92,94.71,7.87,123.75,3,132.79,1.46,142,1,151.12,0Z"/></g></g></svg>