<svg xmlns="http://www.w3.org/2000/svg" viewBox="0 0 195.73 231.61"><title>Asset 6</title><g id="Layer_2" data-name="Layer 2"><g id="Layer_1-2" data-name="Layer 1"><path d="M46.57,0c68.52.08,126.32,44.38,143.59,109.64,10.33,39.05,6.12,76.85-11.17,113.26-3.6,7.58-11.57,10.69-18.46,7.42-7.64-3.62-10.27-11.44-6.43-19.5,11.57-24.25,16.15-49.71,12.82-76.42-6.74-54-45.54-95.29-97.79-104.78a119.68,119.68,0,0,0-50.92,1.75C9.76,33.47,2.48,29.42.45,21.49c-2-7.71,2.69-14.95,11.11-17A151.51,151.51,0,0,1,46.57,0Z"/></g></g></svg>