<svg xmlns="http://www.w3.org/2000/svg" viewBox="0 0 67.74 111.65"><defs><style>.cls-1{fill:#fff;}</style></defs><title>Asset 2</title><g id="Layer_2" data-name="Layer 2"><g id="Layer_1-2" data-name="Layer 1"><path class="cls-1" d="M67.62,30.67q0,14.55,0,29.1c0,2.08,0,4.18.09,6.26.38,6-3.46,9.54-7.67,12.57C45.72,88.9,31.28,99,16.87,109.18c-4.32,3-8.66,3.26-12.37.69-6.08-4.23-6-12.61.26-17.12C12.65,87.08,20.64,81.55,28.58,76c5.5-3.88,11-7.84,16.52-11.62a4.4,4.4,0,0,0,2.08-4.19q-.09-24.57,0-49.13c0-5.08,2.5-8.76,6.83-10.36,4-1.47,8.65-.52,11.06,3.1a16.46,16.46,0,0,1,2.47,7.9c.34,6.32.11,12.67.11,19Z"/></g></g></svg>