<svg xmlns="http://www.w3.org/2000/svg" viewBox="0 0 127.53 128.09"><title>Asset 4</title><g id="Layer_2" data-name="Layer 2"><g id="Layer_1-2" data-name="Layer 1"><path d="M87.24,0a85.22,85.22,0,0,1,31.59,5.8,13.57,13.57,0,0,1,8.37,15.66,13.62,13.62,0,0,1-14.32,10.88c-2.89-.27-5.71-1.39-8.54-2.22-32.52-9.48-64.85,8.1-74.28,40.57a61,61,0,0,0,.78,36.2,26.22,26.22,0,0,1,1.62,7.36c.1,7.09-4.68,12.48-11.64,13.65a13.68,13.68,0,0,1-15.19-9.21A89.34,89.34,0,0,1,4.65,59C16.37,23.3,49.1,0,87.24,0Z"/></g></g></svg>